<?xml version="1.0" encoding="utf-8"?>
<!-- Generator: Adobe Illustrator 23.0.3, SVG Export Plug-In . SVG Version: 6.00 Build 0)  -->
<svg version="1.1" id="Layer_1" xmlns="http://www.w3.org/2000/svg" xmlns:xlink="http://www.w3.org/1999/xlink" x="0px" y="0px"
	 width="404px" height="87px" viewBox="0 0 404 87" style="enable-background:new 0 0 404 87;" xml:space="preserve">
<style type="text/css">
	.st0{fill:#FFFFFF;}
	.st1{fill:url(#SVGID_1_);}
	.st2{fill:url(#SVGID_2_);}
</style>
<title>myworkout-logo-horizontal-white</title>
<g>
	<path class="st0" d="M132.2,36.5c1.6-1,3.5-1.5,5.5-1.5c0.8,0,1.6,0.1,2.3,0.2c0.8,0.2,1.6,0.5,2.4,0.9c0.8,0.5,1.5,1.1,2.1,1.9
		c0.7,0.9,1.3,1.8,1.7,2.9c0.8-1.8,2.2-3.3,3.9-4.3c1.8-1.1,3.8-1.6,5.8-1.5c3.5,0,6.1,1,7.9,3.1c1.8,2.3,2.8,5.3,2.6,8.2v16.9h-4
		V48c0.1-2.4-0.5-4.9-1.6-7c-1.1-1.8-2.9-2.7-5.5-2.6c-1.3,0-2.6,0.3-3.7,0.9c-1,0.6-1.8,1.4-2.4,2.3c-0.6,1-1.1,2.1-1.3,3.3
		c-0.3,1.2-0.4,2.5-0.4,3.8v14.7h-4V47.2c0-1.2-0.1-2.5-0.3-3.7c-0.1-1-0.5-1.9-1-2.8c-0.5-0.8-1.3-1.4-2.1-1.8
		c-1-0.4-2.2-0.7-3.3-0.6c-1,0-2,0.2-2.9,0.7c-1,0.5-1.9,1.1-2.6,2c-0.8,1-1.5,2.1-1.9,3.4c-0.5,1.6-0.7,3.2-0.7,4.8v14.2h-4V41.8
		c0-0.8,0-1.7-0.1-2.9s-0.1-2.2-0.2-3.2h3.8c0.1,0.8,0.1,1.6,0.2,2.5c0,0.9,0.1,1.7,0.1,2.2h0.1C129.4,38.9,130.7,37.5,132.2,36.5z"
		/>
	<path class="st0" d="M184.3,58.9h0.1l8.5-23.3h4.4l-13.7,34.8c-0.7,1.9-1.8,3.6-3.1,5.1c-1.5,1.4-3.5,2.1-5.5,1.9
		c-1.2,0-2.4-0.1-3.6-0.3l0.4-3.7c1,0.3,2,0.5,3,0.5c1.2,0,2.4-0.4,3.2-1.3c0.9-1.1,1.6-2.3,2-3.6l2.2-5.8l-11.8-27.5h4.5
		L184.3,58.9z"/>
	<path class="st0" d="M204.2,35.6L211,58h0.1l7.4-22.4h3.9L230,58h0.1l6.6-22.4h4.3l-8.7,27.6h-4.4l-7.4-22.3h-0.1l-7.2,22.4h-4.4
		l-8.8-27.6L204.2,35.6z"/>
	<path class="st0" d="M272.4,49.3c0,2-0.3,3.9-1.1,5.8c-0.7,1.7-1.7,3.3-3,4.6c-1.3,1.3-2.9,2.3-4.7,3c-3.8,1.5-8.1,1.5-11.9,0
		c-3.5-1.3-6.4-4.1-7.8-7.6c-1.5-3.7-1.5-7.8,0-11.6c1.4-3.5,4.2-6.3,7.7-7.7c3.8-1.5,8.1-1.5,11.9,0c1.7,0.7,3.3,1.7,4.7,3
		c1.3,1.3,2.3,2.9,3,4.6C272,45.3,272.4,47.3,272.4,49.3z M268.2,49.3c0-1.5-0.2-2.9-0.8-4.3c-0.5-1.3-1.2-2.5-2.1-3.5
		c-0.9-1-2.1-1.8-3.3-2.4c-1.4-0.6-2.9-0.9-4.4-0.9c-1.5,0-3,0.3-4.3,0.9c-1.2,0.6-2.4,1.4-3.3,2.4c-0.9,1-1.6,2.2-2.1,3.5
		c-1,2.8-1,5.9,0,8.7c0.5,1.3,1.2,2.5,2.1,3.5c0.9,1,2,1.8,3.3,2.3c2.8,1.1,5.9,1.1,8.7,0c1.3-0.5,2.4-1.3,3.3-2.4
		c0.9-1,1.6-2.2,2.1-3.5C267.9,52.2,268.2,50.8,268.2,49.3L268.2,49.3z"/>
	<path class="st0" d="M278.3,38.7c0-1.2-0.1-2.2-0.2-3.2h3.8c0.1,0.8,0.1,1.6,0.2,2.5s0.1,1.7,0.1,2.2h0.1c1.7-3.4,5.1-5.5,8.9-5.4
		c0.5,0,1,0,1.4,0c0.4,0,0.9,0.1,1.3,0.2l-0.5,3.8c-0.4-0.1-0.8-0.2-1.2-0.2c-0.5-0.1-1.1-0.1-1.6-0.1c-1.1,0-2.1,0.2-3.1,0.6
		c-1,0.4-1.9,1.1-2.6,1.9c-0.8,1-1.4,2-1.8,3.2c-0.5,1.5-0.7,3.1-0.7,4.7v14.1h-4V41.6C278.4,40.8,278.4,39.8,278.3,38.7z"/>
	<path class="st0" d="M303.3,47.9h0.2l12.8-12.5h5.8L308,48l15.4,15h-5.9l-14.1-14.5h-0.2V63h-4l-0.1-44.6h4L303.3,47.9z"/>
	<path class="st0" d="M352.8,49.1c0,2-0.3,4-1.1,5.8c-1.4,3.5-4.2,6.3-7.7,7.7c-1.9,0.8-3.9,1.1-6,1.1c-2,0-4-0.3-5.9-1.1
		c-1.7-0.7-3.3-1.7-4.7-3c-1.3-1.3-2.3-2.9-3-4.6c-1.5-3.7-1.5-7.8,0-11.6c1.4-3.5,4.2-6.3,7.7-7.7c1.9-0.7,3.9-1.1,5.9-1.1
		c2.1,0,4.1,0.3,6,1.1c1.7,0.7,3.3,1.7,4.7,3c1.3,1.3,2.4,2.9,3.1,4.6C352.5,45.2,352.8,47.2,352.8,49.1z M348.6,49.1
		c0-1.5-0.2-2.9-0.7-4.3c-0.5-1.3-1.2-2.5-2.1-3.5c-0.9-1-2.1-1.8-3.3-2.4c-2.8-1.2-5.9-1.2-8.7,0c-1.2,0.6-2.4,1.4-3.3,2.4
		c-0.9,1-1.6,2.2-2.1,3.5c-0.5,1.4-0.7,2.9-0.7,4.3c0,1.5,0.2,2.9,0.8,4.3c0.5,1.3,1.2,2.5,2.1,3.5c0.9,1,2,1.8,3.3,2.3
		c1.4,0.6,2.9,0.9,4.4,0.8c1.5,0,3-0.3,4.4-0.9c1.3-0.5,2.4-1.4,3.3-2.4c0.9-1,1.6-2.2,2.1-3.5C348.3,52.1,348.6,50.6,348.6,49.1
		L348.6,49.1z"/>
	<path class="st0" d="M377.9,62.9c-0.1-0.8-0.1-1.6-0.2-2.5s-0.1-1.7-0.1-2.2h-0.1c-0.8,1.7-2.2,3.1-3.8,3.9c-1.7,1-3.6,1.5-5.6,1.5
		c-3.5,0-6.1-1-7.9-3.1c-1.8-2.3-2.8-5.3-2.6-8.3V35.3h4v15.3c0,1.3,0.1,2.6,0.4,4c0.2,1.1,0.6,2.1,1.2,3c0.6,0.9,1.4,1.6,2.3,2
		c1.1,0.5,2.4,0.7,3.6,0.7c2.2,0,4.3-1,5.8-2.6c0.8-1,1.5-2.1,1.9-3.4c0.5-1.6,0.7-3.2,0.7-4.8V35.3h4v21.5c0,0.8,0,1.7,0.1,2.9
		s0.1,2.2,0.2,3.2H377.9z"/>
	<path class="st0" d="M403,38.6h-7.8v16.1c0,0.9,0.1,1.7,0.3,2.5c0.2,0.6,0.4,1.1,0.9,1.6c0.4,0.4,0.8,0.6,1.3,0.8
		c0.5,0.1,1.1,0.2,1.7,0.2c0.6,0,1.2-0.1,1.7-0.2c0.6-0.2,1.2-0.4,1.8-0.7l0.2,3.5c-0.7,0.3-1.5,0.5-2.2,0.6
		c-0.8,0.1-1.7,0.2-2.5,0.2c-0.8,0-1.6-0.1-2.4-0.3c-0.8-0.2-1.6-0.6-2.3-1.1c-0.8-0.6-1.3-1.4-1.7-2.2c-0.5-1.2-0.7-2.4-0.7-3.7
		V38.6h-5.7v-3.3h5.7v-7.8h4v7.8h7.8V38.6z"/>
</g>
<g>
	
		<linearGradient id="SVGID_1_" gradientUnits="userSpaceOnUse" x1="32.886" y1="53.3522" x2="14.6667" y2="71.5716" gradientTransform="matrix(1 0 0 -1 0 86)">
		<stop  offset="0" style="stop-color:#FFFFFF"/>
		<stop  offset="1" style="stop-color:#B3B3B3"/>
	</linearGradient>
	<path class="st1" d="M47.5,8.9C36.9-1.7,20.3-1,9.7,9.6S-1.6,36.8,9.1,47.4l0.1,0.1l9.3-9.4c-5.4-5.3-5.5-14.1-0.1-19.5
		s14.1-5.5,19.5-0.1l4.9,4.8l9.5-9.6L47.5,8.9z"/>
	
		<radialGradient id="SVGID_2_" cx="39.9158" cy="4.0867" r="78.6477" gradientTransform="matrix(0.9102 0 0 -0.9074 10.8824 78.2958)" gradientUnits="userSpaceOnUse">
		<stop  offset="0" style="stop-color:#E6E6E6"/>
		<stop  offset="1" style="stop-color:#FFFFFF"/>
	</radialGradient>
	<path class="st2" d="M93.4,21.4L47.7,67L18.6,38c-0.2-0.2-0.3-0.3-0.5-0.5c-7.9-8.1-7.7-21.1,0.5-29S39.8,0.8,47.7,9l0,0
		C37-1.7,19.7-1.7,9,9S-1.7,36.9,9,47.5L47.7,86L103,30.9L93.4,21.4z"/>
</g>
</svg>
