<svg id="Layer_1" data-name="Layer 1" xmlns="http://www.w3.org/2000/svg" xmlns:xlink="http://www.w3.org/1999/xlink" width="402" height="85" viewBox="0 0 402 85"><defs><style>.cls-1{fill:#fff;}.cls-2{fill:url(#linear-gradient);}.cls-3{fill:url(#radial-gradient);}</style><linearGradient id="linear-gradient" x1="31.73" y1="31.59" x2="13.06" y2="12.91" gradientUnits="userSpaceOnUse"><stop offset="0" stop-color="#fff"/><stop offset="1" stop-color="#b3b3b3"/></linearGradient><radialGradient id="radial-gradient" cx="46.14" cy="73.59" r="71.39" gradientUnits="userSpaceOnUse"><stop offset="0" stop-color="#e6e6e6"/><stop offset="1" stop-color="#fff"/></radialGradient></defs><title>myworkout-logo-horizontal-white</title><path class="cls-1" d="M131.22,35.53A10.3,10.3,0,0,1,136.69,34a12,12,0,0,1,2.34.23,7.59,7.59,0,0,1,2.37.91A8.67,8.67,0,0,1,143.53,37a10.3,10.3,0,0,1,1.69,2.89,10.31,10.31,0,0,1,3.87-4.34A10.92,10.92,0,0,1,154.91,34q5.26,0,7.9,3.12a12.4,12.4,0,0,1,2.65,8.25l0,16.93h-4l0-15.28a13.36,13.36,0,0,0-1.64-7c-1.09-1.77-2.93-2.65-5.54-2.64a7.18,7.18,0,0,0-3.69.89,7,7,0,0,0-2.42,2.33,10.52,10.52,0,0,0-1.33,3.28,17.44,17.44,0,0,0-.4,3.78l0,14.68h-4l0-16.1a20.53,20.53,0,0,0-.3-3.66,7.74,7.74,0,0,0-1-2.8A4.89,4.89,0,0,0,139,38a7.82,7.82,0,0,0-3.32-.61,6.84,6.84,0,0,0-2.86.66,7.31,7.31,0,0,0-2.6,2,10.1,10.1,0,0,0-1.86,3.36,14.74,14.74,0,0,0-.7,4.81l0,14.16h-4l0-21.53c0-.75,0-1.71-.06-2.9s-.1-2.24-.18-3.18h3.84c.08.75.14,1.58.18,2.48s.06,1.65.07,2.24h.11A9.5,9.5,0,0,1,131.22,35.53Z"/><path class="cls-1" d="M183.34,57.94h.12L192,34.62h4.38L182.65,69.39a14.49,14.49,0,0,1-3.15,5.1A7.48,7.48,0,0,1,174,76.42a18.18,18.18,0,0,1-3.61-.35l.41-3.66a9.17,9.17,0,0,0,3,.47A4.25,4.25,0,0,0,177,71.61,11,11,0,0,0,179,68l2.24-5.79L169.4,34.67h4.5Z"/><path class="cls-1" d="M203.23,34.6,210,57h.12l7.41-22.43h3.91L229,57h.12l6.58-22.43H240l-8.7,27.62h-4.38l-7.43-22.35h-.12l-7.24,22.37h-4.37l-8.81-27.59Z"/><path class="cls-1" d="M271.45,48.28a15,15,0,0,1-1.09,5.78,13.69,13.69,0,0,1-3,4.61,13.85,13.85,0,0,1-4.67,3,16.76,16.76,0,0,1-11.89,0A13.6,13.6,0,0,1,243,54.11a15.74,15.74,0,0,1,0-11.56,13.7,13.7,0,0,1,7.7-7.65,16.76,16.76,0,0,1,11.89,0,13.61,13.61,0,0,1,4.68,3,13.81,13.81,0,0,1,3,4.59A15,15,0,0,1,271.45,48.28Zm-4.26,0a12.35,12.35,0,0,0-.75-4.33,10.63,10.63,0,0,0-2.1-3.54A9.89,9.89,0,0,0,261,38a10.48,10.48,0,0,0-4.38-.88,10.23,10.23,0,0,0-4.34.89,9.92,9.92,0,0,0-3.28,2.4,10.46,10.46,0,0,0-2.1,3.54,13.07,13.07,0,0,0,0,8.67,10.65,10.65,0,0,0,2.11,3.54,9.71,9.71,0,0,0,3.28,2.35,11.51,11.51,0,0,0,8.73,0,9.53,9.53,0,0,0,3.3-2.36,10.66,10.66,0,0,0,2.1-3.54A12.72,12.72,0,0,0,267.19,48.29Z"/><path class="cls-1" d="M277.34,37.65q-.06-1.77-.18-3.18H281c.08.75.14,1.57.19,2.48s.06,1.65.06,2.24h.12a9.77,9.77,0,0,1,8.86-5.44c.51,0,1,0,1.39,0a7.45,7.45,0,0,1,1.27.24l-.53,3.83a7.58,7.58,0,0,0-1.18-.23,11.45,11.45,0,0,0-1.65-.12,8.12,8.12,0,0,0-3.08.6A6.56,6.56,0,0,0,283.88,40a9.65,9.65,0,0,0-1.77,3.23,14.76,14.76,0,0,0-.67,4.74l0,14.13h-4l0-21.53C277.41,39.8,277.38,38.83,277.34,37.65Z"/><path class="cls-1" d="M302.26,46.87h.18L315.19,34.4H321L307.05,47l15.4,15h-5.91l-14.1-14.48h-.18l0,14.51h-4l-.08-44.59h4Z"/><path class="cls-1" d="M351.82,48.13a14.85,14.85,0,0,1-1.08,5.79,13.7,13.7,0,0,1-7.7,7.65,15.91,15.91,0,0,1-6,1.1,15.46,15.46,0,0,1-5.91-1.08,13.61,13.61,0,0,1-4.68-3A14.09,14.09,0,0,1,323.41,54a15.87,15.87,0,0,1,0-11.56,13.66,13.66,0,0,1,7.71-7.66,15.66,15.66,0,0,1,5.91-1.1,16.1,16.1,0,0,1,6,1.08,13.66,13.66,0,0,1,4.67,3,13.88,13.88,0,0,1,3.06,4.6A14.94,14.94,0,0,1,351.82,48.13Zm-4.26,0a12.62,12.62,0,0,0-.74-4.33,10.65,10.65,0,0,0-2.11-3.54,9.93,9.93,0,0,0-3.32-2.38,11.18,11.18,0,0,0-8.72,0,10.27,10.27,0,0,0-3.28,2.4,10.71,10.71,0,0,0-2.09,3.54,12.72,12.72,0,0,0-.73,4.34,12.39,12.39,0,0,0,.75,4.33,10.46,10.46,0,0,0,2.1,3.54,9.52,9.52,0,0,0,3.29,2.35,10.59,10.59,0,0,0,4.35.85,10.78,10.78,0,0,0,4.37-.86A9.56,9.56,0,0,0,344.74,56a10.61,10.61,0,0,0,2.09-3.54A12.44,12.44,0,0,0,347.56,48.14Z"/><path class="cls-1" d="M376.87,61.89c-.09-.75-.15-1.57-.19-2.48s-.06-1.65-.06-2.24h-.12a9,9,0,0,1-3.83,3.93,11.32,11.32,0,0,1-5.62,1.52c-3.51,0-6.14-1-7.9-3.11a12.45,12.45,0,0,1-2.65-8.26l0-16.93h4l0,15.28a19.83,19.83,0,0,0,.36,3.95,8.33,8.33,0,0,0,1.22,3,5.78,5.78,0,0,0,2.31,2,8.18,8.18,0,0,0,3.64.7,7.66,7.66,0,0,0,5.79-2.63,10,10,0,0,0,1.89-3.37,14.74,14.74,0,0,0,.7-4.81l0-14.15h4l0,21.53c0,.75,0,1.71.07,2.89s.1,2.24.18,3.18Z"/><path class="cls-1" d="M402,37.6h-7.81l0,16.11a9.06,9.06,0,0,0,.3,2.54,3.65,3.65,0,0,0,.86,1.56,3,3,0,0,0,1.33.76,5.9,5.9,0,0,0,1.66.2,6.86,6.86,0,0,0,1.74-.24,8.37,8.37,0,0,0,1.75-.65l.18,3.48a11.78,11.78,0,0,1-2.22.63,14.89,14.89,0,0,1-2.51.21,10.65,10.65,0,0,1-2.37-.29,6.19,6.19,0,0,1-2.31-1.12,6,6,0,0,1-1.74-2.24,8.5,8.5,0,0,1-.69-3.71l0-17.23h-5.74V34.27h5.73V26.47h4v7.78H402Z"/><path class="cls-2" d="M46.32,7.85A27,27,0,0,0,27.21.2,27,27,0,0,0,.2,27.41,26.87,26.87,0,0,0,8.09,46.34l.15.13L17.55,37A13.75,13.75,0,1,1,36.86,17.44l4.9,4.83,9.45-9.59Z"/><path class="cls-3" d="M92,20.33,46.45,65.94l-29-29a5.79,5.79,0,0,1-.48-.51A20.48,20.48,0,0,1,46.45,8h0A27.22,27.22,0,0,0,8,46.49L46.45,85l55.08-55.13Z"/></svg>