<?xml version="1.0" encoding="utf-8"?>
<!-- Generator: Adobe Illustrator 23.0.3, SVG Export Plug-In . SVG Version: 6.00 Build 0)  -->
<svg version="1.1" id="Layer_1" xmlns="http://www.w3.org/2000/svg" xmlns:xlink="http://www.w3.org/1999/xlink" x="0px" y="0px"
	 width="297px" height="217px" viewBox="0 0 297 217" style="enable-background:new 0 0 297 217;" xml:space="preserve">
<style type="text/css">
	.st0{fill:url(#SVGID_1_);}
	.st1{fill:url(#SVGID_2_);}
	.st2{fill:#FFFFFF;}
</style>
<title>myworkout-go-vertical-white</title>
<linearGradient id="SVGID_1_" gradientUnits="userSpaceOnUse" x1="119.7994" y1="169.3905" x2="92.4164" y2="196.7735" gradientTransform="matrix(1 0 0 -1 0 218)">
	<stop  offset="0" style="stop-color:#FFFFFF"/>
	<stop  offset="1" style="stop-color:#B3B3B3"/>
</linearGradient>
<path class="st0" d="M141.8,12.8C125.8-3.1,100.9-2,85,14s-16.9,40.9-0.8,56.8l0.2,0.2l14-14.2c-8.1-8-8.2-21.2-0.2-29.3
	s21.2-8.2,29.3-0.2l7.4,7.3l14.3-14.5L141.8,12.8z"/>
<radialGradient id="SVGID_2_" cx="141.12" cy="106.19" r="107.49" gradientTransform="matrix(1 0 0 -1 0.21 218)" gradientUnits="userSpaceOnUse">
	<stop  offset="0" style="stop-color:#E6E6E6"/>
	<stop  offset="1" style="stop-color:#FFFFFF"/>
</radialGradient>
<path class="st1" d="M210.7,31.6L142,100.3L98.3,56.7c-0.2-0.2-0.5-0.5-0.7-0.8c-11.8-12.3-11.5-31.8,0.8-43.7S130.2,0.7,142,13l0,0
	c-16-16-42-16-58,0s-16,42,0,58l58.1,58l83.1-83L210.7,31.6z"/>
<path class="st2" d="M9.3,172.8c1.7-1.1,3.7-1.6,5.8-1.6c0.8,0,1.7,0.1,2.5,0.2c0.9,0.2,1.7,0.5,2.5,1c0.9,0.5,1.6,1.1,2.3,1.9
	c0.8,0.9,1.4,1.9,1.8,3.1c0.9-1.9,2.3-3.5,4.1-4.6c1.9-1.1,4-1.7,6.2-1.6c3.7,0,6.5,1.1,8.4,3.3c2,2.5,3,5.6,2.8,8.7v17.9h-4.2
	v-16.2c0.1-2.6-0.5-5.1-1.7-7.4c-1.1-1.9-3.1-2.8-5.9-2.8c-1.4,0-2.7,0.3-3.9,0.9c-1,0.6-1.9,1.5-2.6,2.5c-0.7,1.1-1.1,2.2-1.4,3.5
	c-0.3,1.3-0.4,2.7-0.4,4v15.5h-4.3v-17c0-1.3-0.1-2.6-0.3-3.9c-0.2-1.1-0.5-2.1-1.1-3c-0.5-0.8-1.3-1.5-2.2-1.9
	c-1.1-0.5-2.3-0.7-3.5-0.6c-1,0-2.1,0.3-3,0.7c-1.1,0.5-2,1.2-2.8,2.1c-0.9,1.1-1.6,2.3-2,3.6c-0.5,1.6-0.8,3.4-0.7,5.1v15H1.3
	v-22.8c0-0.8,0-1.8-0.1-3.1S1.1,173,1,172h4c0.1,0.8,0.2,1.7,0.2,2.6s0.1,1.7,0.1,2.4h0.1C6.3,175.2,7.6,173.8,9.3,172.8z"/>
<path class="st2" d="M64.5,196.5h0.1l9-24.6h4.6l-14.5,36.7c-0.7,2-1.9,3.9-3.3,5.4c-1.6,1.4-3.7,2.2-5.8,2c-1.3,0-2.6-0.1-3.8-0.4
	l0.4-3.9c1,0.3,2.1,0.5,3.1,0.5c1.3,0.1,2.5-0.4,3.5-1.4c1-1.1,1.7-2.4,2.2-3.8l2.4-6l-12.6-29.1h4.8L64.5,196.5z"/>
<path class="st2" d="M85.5,171.8l7.1,23.7h0.1l7.8-23.7h4.1l8.1,23.7h0.2l7-23.7h4.5l-9.2,29.2h-4.6l-7.9-23.6h-0.1L94.9,201h-4.6
	L81,171.8L85.5,171.8z"/>
<path class="st2" d="M157.8,186.2c0,2.1-0.4,4.2-1.1,6.1c-0.7,1.8-1.8,3.5-3.2,4.9c-1.4,1.4-3.1,2.5-4.9,3.2
	c-4.1,1.5-8.5,1.5-12.6,0c-3.7-1.4-6.7-4.4-8.2-8.1c-0.8-1.9-1.2-4-1.2-6.1c0-2.1,0.4-4.2,1.2-6.1c1.5-3.7,4.4-6.6,8.2-8.1
	c4.1-1.5,8.5-1.5,12.6,0c3.7,1.4,6.7,4.4,8.2,8.1C157.4,182.1,157.8,184.2,157.8,186.2z M153.3,186.2c0-1.6-0.3-3.1-0.8-4.6
	c-0.5-1.4-1.3-2.6-2.2-3.7c-1-1.1-2.2-1.9-3.5-2.5c-1.5-0.6-3-1-4.6-0.9c-1.6,0-3.2,0.3-4.6,0.9c-1.3,0.6-2.5,1.5-3.5,2.6
	c-1,1.1-1.7,2.4-2.2,3.8c-1,3-1,6.2,0,9.2c0.5,1.4,1.3,2.6,2.2,3.7c1,1.1,2.2,1.9,3.5,2.5c1.5,0.6,3,0.9,4.6,0.9
	c1.6,0,3.2-0.3,4.6-0.9c1.3-0.6,2.5-1.4,3.5-2.5c1-1.1,1.7-2.4,2.2-3.8C153,189.4,153.3,187.8,153.3,186.2L153.3,186.2z"/>
<path class="st2" d="M164,175c0-1.2-0.1-2.4-0.2-3.4h4.1c0.1,0.8,0.1,1.7,0.2,2.6s0.1,1.7,0.1,2.4h0.1c0.8-1.7,2.1-3.2,3.8-4.2
	c1.7-1.1,3.6-1.6,5.6-1.6c0.6,0,1,0,1.5,0.1c0.5,0,0.9,0.1,1.3,0.2l-0.6,4c-0.4-0.1-0.8-0.2-1.3-0.2c-0.6-0.1-1.2-0.1-1.8-0.1
	c-1.1,0-2.2,0.2-3.2,0.6c-1.1,0.4-2,1.1-2.7,2c-0.8,1-1.5,2.2-1.9,3.4c-0.5,1.6-0.7,3.3-0.7,5v14.9h-4.3V178
	C164.1,177.3,164.1,176.3,164,175z"/>
<path class="st2" d="M190.4,184.8h0.2l13.5-13.2h6.1l-14.8,13.4l16.3,15.8h-6.3l-14.9-15.3h-0.2v15.3h-4.3l-0.1-47.1h4.3
	L190.4,184.8z"/>
<path class="st2" d="M242.9,186.1c0,2.1-0.4,4.2-1.1,6.1c-0.7,1.8-1.8,3.5-3.2,4.9c-1.4,1.4-3.1,2.5-4.9,3.2c-2,0.8-4.2,1.2-6.3,1.2
	c-2.1,0-4.3-0.4-6.3-1.1c-1.9-0.7-3.5-1.8-4.9-3.2c-1.4-1.4-2.5-3-3.2-4.9c-0.8-1.9-1.2-4-1.2-6.1c0-2.1,0.4-4.2,1.1-6.1
	c0.7-1.8,1.8-3.5,3.2-4.9c1.4-1.4,3.1-2.5,4.9-3.2c2-0.8,4.1-1.2,6.3-1.2c2.2,0,4.3,0.4,6.3,1.1c3.7,1.4,6.7,4.4,8.2,8.1
	C242.5,181.9,242.9,184,242.9,186.1z M238.4,186.1c0-1.6-0.3-3.1-0.8-4.6c-0.5-1.4-1.2-2.7-2.2-3.7c-1-1.1-2.2-1.9-3.5-2.5
	c-1.5-0.6-3-1-4.6-0.9c-3.1-0.1-6,1.2-8.1,3.5c-1,1.1-1.7,2.4-2.2,3.8c-1,3-1,6.2,0,9.2c0.5,1.4,1.3,2.6,2.2,3.7
	c1,1.1,2.2,1.9,3.5,2.5c1.5,0.6,3,0.9,4.6,0.9c1.6,0,3.2-0.3,4.6-0.9c1.3-0.6,2.5-1.4,3.5-2.5c1-1.1,1.7-2.4,2.2-3.7
	C238.1,189.2,238.4,187.7,238.4,186.1L238.4,186.1z"/>
<path class="st2" d="M269.4,200.6c-0.1-0.8-0.1-1.7-0.2-2.6s-0.1-1.8-0.1-2.4H269c-0.9,1.8-2.3,3.2-4.1,4.1c-1.8,1-3.9,1.6-6,1.6
	c-3.7,0-6.5-1.1-8.4-3.3c-2-2.5-3-5.6-2.8-8.7v-17.9h4.3v16.2c0,1.4,0.1,2.8,0.4,4.2c0.2,1.1,0.7,2.2,1.3,3.2
	c0.6,0.9,1.5,1.6,2.4,2.1c1.2,0.5,2.5,0.8,3.9,0.7c1.1,0,2.3-0.2,3.3-0.7c1.1-0.5,2.1-1.2,2.8-2.1c0.9-1,1.6-2.3,2-3.6
	c0.5-1.6,0.8-3.4,0.7-5.1v-15h4.3l0,22.8c0,0.8,0,1.8,0.1,3s0.1,2.4,0.2,3.4L269.4,200.6z"/>
<path class="st2" d="M296,175h-8.3v17c0,0.9,0.1,1.8,0.3,2.7c0.2,0.6,0.5,1.2,0.9,1.6c0.4,0.4,0.9,0.7,1.4,0.8
	c0.6,0.2,1.2,0.2,1.8,0.2c0.6,0,1.2-0.1,1.9-0.2c0.6-0.2,1.3-0.4,1.9-0.7l0.2,3.7c-0.8,0.3-1.5,0.5-2.4,0.7
	c-0.9,0.2-1.8,0.2-2.7,0.3c-0.8,0-1.7-0.1-2.5-0.3c-0.9-0.2-1.7-0.6-2.5-1.2c-0.8-0.6-1.4-1.4-1.9-2.4c-0.5-1.2-0.8-2.6-0.7-3.9V175
	h-6.1v-3.6h6.1v-8.3h4.3v8.2h8.3L296,175z"/>
</svg>
