<svg id="Layer_1" data-name="Layer 1" xmlns="http://www.w3.org/2000/svg" xmlns:xlink="http://www.w3.org/1999/xlink" width="297" height="217" viewBox="0 0 297 217"><defs><style>.cls-1{fill:url(#linear-gradient);}.cls-2{fill:url(#radial-gradient);}.cls-3{fill:#fff;}</style><linearGradient id="linear-gradient" x1="119.79" y1="48.59" x2="91.63" y2="20.43" gradientUnits="userSpaceOnUse"><stop offset="0" stop-color="#fff"/><stop offset="1" stop-color="#b3b3b3"/></linearGradient><radialGradient id="radial-gradient" cx="141.12" cy="111.81" r="107.49" gradientTransform="translate(0.21)" gradientUnits="userSpaceOnUse"><stop offset="0" stop-color="#e6e6e6"/><stop offset="1" stop-color="#fff"/></radialGradient></defs><title>myworkout-go-vertical-white</title><path class="cls-1" d="M141.8,12.82a40.89,40.89,0,0,0-57.68,58l.22.2,14-14.23a20.73,20.73,0,0,1,29.14-29.5l7.38,7.28L149.18,20.1Z"/><path class="cls-2" d="M210.71,31.63,142,100.34,98.3,56.68c-.25-.25-.49-.51-.73-.77A30.88,30.88,0,0,1,142,13h0A41,41,0,0,0,83.94,71L142,129l83.1-83Z"/><path class="cls-3" d="M9.3,172.77a11,11,0,0,1,5.79-1.6,12.62,12.62,0,0,1,2.47.25,7.74,7.74,0,0,1,2.51,1,9.07,9.07,0,0,1,2.26,1.9,10.63,10.63,0,0,1,1.79,3.05,11,11,0,0,1,4.09-4.59,11.5,11.5,0,0,1,6.17-1.6q5.57,0,8.36,3.29a13.1,13.1,0,0,1,2.81,8.72l0,17.9H41.32l0-16.16a14,14,0,0,0-1.74-7.41q-1.72-2.81-5.86-2.8a7.67,7.67,0,0,0-3.91.94,7.48,7.48,0,0,0-2.56,2.47,10.81,10.81,0,0,0-1.4,3.47,17.49,17.49,0,0,0-.43,4l0,15.53H21.16l0-17a22,22,0,0,0-.32-3.87,7.94,7.94,0,0,0-1.1-3,5,5,0,0,0-2.16-1.86,8,8,0,0,0-3.51-.65,7.41,7.41,0,0,0-3,.69,8.12,8.12,0,0,0-2.75,2.09,10.91,10.91,0,0,0-2,3.56,15.24,15.24,0,0,0-.74,5.08l0,15H1.3l0-22.76c0-.79,0-1.81-.07-3.06s-.11-2.37-.19-3.37H5.07c.09.79.15,1.66.19,2.62s.07,1.74.07,2.37h.13A9.9,9.9,0,0,1,9.3,172.77Z"/><path class="cls-3" d="M64.48,196.46h.13l9-24.65h4.64L63.75,208.56a15.21,15.21,0,0,1-3.34,5.4,7.89,7.89,0,0,1-5.85,2,19.48,19.48,0,0,1-3.82-.37l.43-3.87a9.68,9.68,0,0,0,3.13.5,4.49,4.49,0,0,0,3.45-1.35,11.45,11.45,0,0,0,2.18-3.84L62.3,201l-12.58-29.1h4.76Z"/><path class="cls-3" d="M85.54,171.79l7.12,23.68h.12l7.85-23.71h4.13l8.06,23.69H113l7-23.71h4.51l-9.22,29.2h-4.63l-7.87-23.62h-.13L94.92,201H90.29L81,171.8Z"/><path class="cls-3" d="M157.77,186.25a15.9,15.9,0,0,1-1.15,6.11,14.65,14.65,0,0,1-3.21,4.87,14.8,14.8,0,0,1-4.94,3.23,17.8,17.8,0,0,1-12.59,0,14.45,14.45,0,0,1-8.19-8.06,15.73,15.73,0,0,1-1.17-6.11,16,16,0,0,1,1.15-6.12,14.37,14.37,0,0,1,8.16-8.09,17.78,17.78,0,0,1,12.58,0,14.37,14.37,0,0,1,8.19,8.06A15.91,15.91,0,0,1,157.77,186.25Zm-4.51,0a13.32,13.32,0,0,0-.79-4.58,11.31,11.31,0,0,0-2.23-3.74,10.44,10.44,0,0,0-3.51-2.52,11.21,11.21,0,0,0-4.64-.93,11,11,0,0,0-4.6.95A10.51,10.51,0,0,0,134,178a11.17,11.17,0,0,0-2.22,3.75,13.84,13.84,0,0,0,0,9.16,11.31,11.31,0,0,0,2.23,3.74,10.17,10.17,0,0,0,3.48,2.49,11.12,11.12,0,0,0,4.61.89,11.32,11.32,0,0,0,4.63-.91,10.18,10.18,0,0,0,3.5-2.5,11.17,11.17,0,0,0,2.22-3.75A13.55,13.55,0,0,0,153.26,186.26Z"/><path class="cls-3" d="M164,175c0-1.24-.11-2.37-.19-3.36h4.07c.08.79.15,1.66.19,2.62s.07,1.74.07,2.37h.12a10.13,10.13,0,0,1,3.75-4.16,10.39,10.39,0,0,1,5.63-1.6c.55,0,1,0,1.48.06a8.48,8.48,0,0,1,1.34.25l-.55,4a8.3,8.3,0,0,0-1.26-.24,10.3,10.3,0,0,0-1.75-.12,8.77,8.77,0,0,0-3.25.62,7,7,0,0,0-2.73,2,10.3,10.3,0,0,0-1.87,3.42,15.44,15.44,0,0,0-.71,5l0,14.93h-4.26l0-22.76C164.08,177.28,164.05,176.26,164,175Z"/><path class="cls-3" d="M190.39,184.76h.19l13.5-13.19h6.14l-14.75,13.37,16.31,15.81-6.27,0-14.93-15.32h-.19l0,15.34h-4.26l-.08-47.15h4.26Z"/><path class="cls-3" d="M242.87,186.09a15.73,15.73,0,0,1-1.15,6.12,14.86,14.86,0,0,1-3.21,4.87,14.68,14.68,0,0,1-4.94,3.22,17.06,17.06,0,0,1-6.33,1.17,16.67,16.67,0,0,1-6.26-1.15,14.53,14.53,0,0,1-4.95-3.2,14.79,14.79,0,0,1-3.24-4.86,16.06,16.06,0,0,1-1.17-6.11,15.9,15.9,0,0,1,1.15-6.11,14.63,14.63,0,0,1,3.22-4.87,14.43,14.43,0,0,1,4.94-3.22,16.84,16.84,0,0,1,6.26-1.17,17,17,0,0,1,6.32,1.14A14.43,14.43,0,0,1,241.7,180,15.64,15.64,0,0,1,242.87,186.09Zm-4.51,0a13.08,13.08,0,0,0-.79-4.58,11.24,11.24,0,0,0-2.23-3.74,10.58,10.58,0,0,0-3.51-2.52,11,11,0,0,0-4.64-.92,10.57,10.57,0,0,0-8.07,3.47,11,11,0,0,0-2.21,3.75,13.78,13.78,0,0,0,0,9.17,11.36,11.36,0,0,0,2.23,3.73,10.17,10.17,0,0,0,3.48,2.49,11.29,11.29,0,0,0,4.61.9,11.66,11.66,0,0,0,4.63-.91,10.11,10.11,0,0,0,3.5-2.51,11.22,11.22,0,0,0,2.22-3.74A13.17,13.17,0,0,0,238.36,186.1Z"/><path class="cls-3" d="M269.39,200.64c-.09-.79-.15-1.66-.2-2.62s-.06-1.75-.06-2.37H269a9.54,9.54,0,0,1-4.06,4.15,12,12,0,0,1-5.95,1.61c-3.71,0-6.5-1.09-8.36-3.29a13.13,13.13,0,0,1-2.81-8.73l0-17.9h4.26l0,16.16a21.41,21.41,0,0,0,.38,4.18,9,9,0,0,0,1.29,3.2,6.1,6.1,0,0,0,2.45,2.09,8.75,8.75,0,0,0,3.85.74,8.23,8.23,0,0,0,3.29-.69,8.05,8.05,0,0,0,2.84-2.1,10.25,10.25,0,0,0,2-3.56,15.16,15.16,0,0,0,.74-5.08l0-15h4.26l.05,22.76c0,.79,0,1.81.06,3s.11,2.37.2,3.37Z"/><path class="cls-3" d="M296,175h-8.26l0,17a9.58,9.58,0,0,0,.32,2.68,3.73,3.73,0,0,0,.91,1.65,3,3,0,0,0,1.41.81,6.18,6.18,0,0,0,1.75.21,7.26,7.26,0,0,0,1.85-.25,9.77,9.77,0,0,0,1.85-.69l.19,3.68a13,13,0,0,1-2.35.66A14.68,14.68,0,0,1,291,201a10.65,10.65,0,0,1-2.5-.3,6.4,6.4,0,0,1-2.45-1.18,6.47,6.47,0,0,1-1.85-2.37,9.28,9.28,0,0,1-.73-3.93l0-18.21h-6.07v-3.55h6.07V163.2h4.26v8.23l8.27,0Z"/></svg>