<svg id="Layer_1" data-name="Layer 1" xmlns="http://www.w3.org/2000/svg" xmlns:xlink="http://www.w3.org/1999/xlink" width="297" height="217" viewBox="0 0 297 217"><defs><style>.cls-1{fill:url(#linear-gradient);}.cls-2{fill:url(#radial-gradient);}.cls-3{fill:#2d4b7b;}</style><linearGradient id="linear-gradient" x1="119.79" y1="48.62" x2="91.62" y2="20.45" gradientUnits="userSpaceOnUse"><stop offset="0" stop-color="#0ebbc9"/><stop offset="1" stop-color="#5e46bd"/></linearGradient><radialGradient id="radial-gradient" cx="141.43" cy="111.88" r="107.56" gradientUnits="userSpaceOnUse"><stop offset="0" stop-color="#5e46bd"/><stop offset="1" stop-color="#0ebbc9"/></radialGradient></defs><title>myworkout-logo-vertical-color</title><path class="cls-1" d="M141.8,12.83a40.91,40.91,0,0,0-57.68,58l.22.2,14-14.24a20.74,20.74,0,1,1,29.14-29.52l7.38,7.28,14.27-14.45Z"/><path class="cls-2" d="M210.71,31.65,142,100.4,98.3,56.71c-.25-.25-.49-.5-.73-.76A30.89,30.89,0,0,1,142,13h0A41.05,41.05,0,0,0,83.94,71.08L142,129.13,225.09,46Z"/><path class="cls-3" d="M9.3,172.74a11,11,0,0,1,5.79-1.6,12.62,12.62,0,0,1,2.47.25,7.74,7.74,0,0,1,2.51,1,9.29,9.29,0,0,1,2.26,1.9,10.77,10.77,0,0,1,1.79,3.05,11,11,0,0,1,4.09-4.59,11.5,11.5,0,0,1,6.17-1.6q5.57,0,8.36,3.29a13.13,13.13,0,0,1,2.81,8.73l0,17.91H41.32l0-16.17a14,14,0,0,0-1.74-7.42q-1.72-2.81-5.86-2.8a7.67,7.67,0,0,0-3.91,1,7.39,7.39,0,0,0-2.56,2.47,10.75,10.75,0,0,0-1.4,3.46,17.58,17.58,0,0,0-.43,4l0,15.54H21.16l0-17a21.78,21.78,0,0,0-.32-3.87,7.94,7.94,0,0,0-1.1-3,5.06,5.06,0,0,0-2.16-1.87A8.15,8.15,0,0,0,14,174.7a7.41,7.41,0,0,0-3,.69,8,8,0,0,0-2.75,2.1,10.7,10.7,0,0,0-2,3.56,15.2,15.2,0,0,0-.74,5.08l0,15H1.3l0-22.78c0-.79,0-1.81-.07-3.06s-.11-2.37-.19-3.37H5.07c.09.79.15,1.66.19,2.62s.07,1.75.07,2.37h.13A10,10,0,0,1,9.3,172.74Z"/><path class="cls-3" d="M64.48,196.45h.13l9-24.67h4.64L63.75,208.56a15.3,15.3,0,0,1-3.34,5.4,7.89,7.89,0,0,1-5.85,2,19.48,19.48,0,0,1-3.82-.37l.43-3.87a10,10,0,0,0,3.13.5,4.56,4.56,0,0,0,3.45-1.35,11.65,11.65,0,0,0,2.18-3.84L62.3,201,49.72,171.83h4.76Z"/><path class="cls-3" d="M85.54,171.76l7.12,23.7h.12l7.85-23.73h4.13l8.06,23.7H113l7-23.72h4.51l-9.22,29.22h-4.63l-7.87-23.64h-.13L94.92,201H90.29L81,171.77Z"/><path class="cls-3" d="M157.77,186.23a15.92,15.92,0,0,1-1.15,6.12,14.45,14.45,0,0,1-8.15,8.1,16.86,16.86,0,0,1-6.33,1.16,16.67,16.67,0,0,1-6.26-1.14,14.43,14.43,0,0,1-8.19-8.07,15.73,15.73,0,0,1-1.17-6.11,15.92,15.92,0,0,1,1.15-6.12,14.43,14.43,0,0,1,8.16-8.1,17.78,17.78,0,0,1,12.58,0,14.43,14.43,0,0,1,8.19,8.07A15.91,15.91,0,0,1,157.77,186.23Zm-4.51,0a13.42,13.42,0,0,0-.79-4.59,11.41,11.41,0,0,0-2.23-3.74,10.44,10.44,0,0,0-3.51-2.52,11.21,11.21,0,0,0-4.64-.93,11,11,0,0,0-4.6.95,10.65,10.65,0,0,0-3.47,2.53,11.37,11.37,0,0,0-2.22,3.75,13.9,13.9,0,0,0,0,9.18,11.26,11.26,0,0,0,2.23,3.73,10.33,10.33,0,0,0,3.48,2.5,11.29,11.29,0,0,0,4.61.89,11.49,11.49,0,0,0,4.63-.91,10.31,10.31,0,0,0,3.5-2.5,11.37,11.37,0,0,0,2.22-3.75A13.65,13.65,0,0,0,153.26,186.24Z"/><path class="cls-3" d="M164,175c0-1.25-.11-2.37-.19-3.37h4.07c.08.79.15,1.66.19,2.62s.07,1.75.07,2.37h.12a10.13,10.13,0,0,1,3.75-4.16,10.39,10.39,0,0,1,5.63-1.6c.55,0,1,0,1.48.06a8.48,8.48,0,0,1,1.34.25l-.55,4.06a7,7,0,0,0-1.26-.25,12.87,12.87,0,0,0-1.75-.12,8.59,8.59,0,0,0-3.25.63,6.91,6.91,0,0,0-2.73,2,10.46,10.46,0,0,0-1.87,3.43,15.44,15.44,0,0,0-.71,5l0,14.94h-4.26l0-22.78C164.08,177.25,164.05,176.23,164,175Z"/><path class="cls-3" d="M190.39,184.74h.19l13.5-13.19h6.14l-14.75,13.38,16.31,15.82-6.27,0-14.93-15.33h-.19l0,15.35h-4.26l-.08-47.18h4.26Z"/><path class="cls-3" d="M242.87,186.07a15.73,15.73,0,0,1-1.15,6.12,14.37,14.37,0,0,1-8.15,8.1,17.06,17.06,0,0,1-6.33,1.17,16.67,16.67,0,0,1-6.26-1.15,14.53,14.53,0,0,1-4.95-3.2,14.79,14.79,0,0,1-3.24-4.86,16.72,16.72,0,0,1,0-12.24,14.73,14.73,0,0,1,3.22-4.87,14.43,14.43,0,0,1,4.94-3.22,17.63,17.63,0,0,1,12.58,0A14.37,14.37,0,0,1,241.7,180,15.73,15.73,0,0,1,242.87,186.07Zm-4.51,0a13.08,13.08,0,0,0-.79-4.58,11.14,11.14,0,0,0-2.23-3.74,10.44,10.44,0,0,0-3.51-2.52,11.88,11.88,0,0,0-9.24,0,10.78,10.78,0,0,0-3.47,2.54,11,11,0,0,0-2.21,3.75,13.78,13.78,0,0,0,0,9.17,11.41,11.41,0,0,0,2.23,3.74,10.17,10.17,0,0,0,3.48,2.49,11.29,11.29,0,0,0,4.61.9,11.49,11.49,0,0,0,4.63-.92,10.09,10.09,0,0,0,3.5-2.5,11.17,11.17,0,0,0,2.22-3.75A13.13,13.13,0,0,0,238.36,186.08Z"/><path class="cls-3" d="M269.39,200.63c-.09-.79-.15-1.66-.2-2.62s-.06-1.75-.06-2.37H269a9.54,9.54,0,0,1-4.06,4.15A12,12,0,0,1,259,201.4c-3.71,0-6.5-1.09-8.36-3.3a13.13,13.13,0,0,1-2.81-8.73l0-17.91h4.26l0,16.17a21.34,21.34,0,0,0,.38,4.18,8.94,8.94,0,0,0,1.29,3.21,6.18,6.18,0,0,0,2.45,2.09,8.9,8.9,0,0,0,3.85.74,8.07,8.07,0,0,0,3.29-.7,7.9,7.9,0,0,0,2.84-2.09,10.44,10.44,0,0,0,2-3.56,15.26,15.26,0,0,0,.74-5.09l0-15h4.26l.05,22.77c0,.8,0,1.81.06,3.06s.11,2.37.2,3.37Z"/><path class="cls-3" d="M296,174.93l-8.26,0,0,17a9.61,9.61,0,0,0,.32,2.69,3.84,3.84,0,0,0,.91,1.65,3.22,3.22,0,0,0,1.41.81,7,7,0,0,0,1.75.21,7.26,7.26,0,0,0,1.85-.25,9.77,9.77,0,0,0,1.85-.69l.19,3.68a13,13,0,0,1-2.35.66A14.68,14.68,0,0,1,291,201a10.65,10.65,0,0,1-2.5-.3,6.4,6.4,0,0,1-2.45-1.18,6.64,6.64,0,0,1-1.85-2.37,9.28,9.28,0,0,1-.73-3.93l0-18.23-6.07,0v-3.56h6.07v-8.24h4.26v8.24l8.27,0Z"/></svg>