<?xml version="1.0" encoding="utf-8"?>
<!-- Generator: Adobe Illustrator 23.0.3, SVG Export Plug-In . SVG Version: 6.00 Build 0)  -->
<svg version="1.1" id="Layer_1" xmlns="http://www.w3.org/2000/svg" xmlns:xlink="http://www.w3.org/1999/xlink" x="0px" y="0px"
	 width="104px" height="87px" viewBox="0 0 104 87" style="enable-background:new 0 0 104 87;" xml:space="preserve">
<style type="text/css">
	.st0{fill:url(#SVGID_1_);}
	.st1{fill:url(#SVGID_2_);}
</style>
<title>myworkout-vignette-color</title>
<g>
	
		<linearGradient id="SVGID_1_" gradientUnits="userSpaceOnUse" x1="32.8945" y1="55.3743" x2="14.1584" y2="74.1104" gradientTransform="matrix(1 0 0 -1 0 88)">
		<stop  offset="0" style="stop-color:#0EBBC9"/>
		<stop  offset="1" style="stop-color:#5E46BD"/>
	</linearGradient>
	<path class="st0" d="M47.5,8.9C36.6-1.5,19.4-1,9,9.8c-10,10.5-10,27,0.1,37.5l0.1,0.1l9.3-9.4c-5.4-5.3-5.5-14-0.2-19.5
		s14.1-5.5,19.5-0.2c0,0,0,0,0.1,0.1l4.9,4.8l9.5-9.6L47.5,8.9z"/>
	
		<radialGradient id="SVGID_2_" cx="47.7467" cy="12.4292" r="72.3238" gradientTransform="matrix(0.9903 0 0 -0.9864 9.708738e-03 86.819)" gradientUnits="userSpaceOnUse">
		<stop  offset="0" style="stop-color:#5E46BD"/>
		<stop  offset="1" style="stop-color:#0EBBC9"/>
	</radialGradient>
	<path class="st1" d="M93.4,21.3L47.7,66.9L18.6,38c-0.2-0.2-0.3-0.3-0.5-0.5c-7.9-8.1-7.7-21.1,0.5-29S39.8,0.8,47.7,9l0,0
		C37-1.7,19.7-1.7,9,9S-1.7,36.9,9,47.5l0,0L47.7,86L103,30.9L93.4,21.3z"/>
</g>
</svg>
