<svg id="Layer_1" data-name="Layer 1" xmlns="http://www.w3.org/2000/svg" xmlns:xlink="http://www.w3.org/1999/xlink" width="104" height="87" viewBox="0 0 104 87"><defs><style>.cls-1{fill:url(#linear-gradient);}.cls-2{fill:url(#radial-gradient);}</style><linearGradient id="linear-gradient" x1="32.89" y1="32.61" x2="14.16" y2="13.88" gradientUnits="userSpaceOnUse"><stop offset="0" stop-color="#fff"/><stop offset="1" stop-color="#b3b3b3"/></linearGradient><radialGradient id="radial-gradient" cx="47.73" cy="74.59" r="71.39" gradientTransform="translate(-0.6)" gradientUnits="userSpaceOnUse"><stop offset="0" stop-color="#e6e6e6"/><stop offset="1" stop-color="#fff"/></radialGradient></defs><title>myworkout-vignette-white</title><path class="cls-1" d="M47.54,8.85A27.22,27.22,0,0,0,28.34,1.2,27,27,0,0,0,9.13,47.34l.15.13L18.63,38A13.78,13.78,0,0,1,38,18.44L43,23.27l9.5-9.59Z"/><path class="cls-2" d="M93.42,21.33,47.66,66.94,18.57,38a5.79,5.79,0,0,1-.48-.51A20.53,20.53,0,0,1,47.66,9h0A27.28,27.28,0,0,0,9,47.49L47.66,86,103,30.87Z"/></svg>