<?xml version="1.0" encoding="utf-8"?>
<!-- Generator: Adobe Illustrator 23.0.3, SVG Export Plug-In . SVG Version: 6.00 Build 0)  -->
<svg version="1.1" id="Layer_1" xmlns="http://www.w3.org/2000/svg" xmlns:xlink="http://www.w3.org/1999/xlink" x="0px" y="0px"
	 width="104px" height="87px" viewBox="0 0 104 87" style="enable-background:new 0 0 104 87;" xml:space="preserve">
<style type="text/css">
	.st0{fill:url(#SVGID_1_);}
	.st1{fill:url(#SVGID_2_);}
</style>
<title>myworkout-vignette-white</title>
<g>
	
		<linearGradient id="SVGID_1_" gradientUnits="userSpaceOnUse" x1="32.886" y1="55.3522" x2="14.6667" y2="73.5716" gradientTransform="matrix(1 0 0 -1 0 88)">
		<stop  offset="0" style="stop-color:#FFFFFF"/>
		<stop  offset="1" style="stop-color:#B3B3B3"/>
	</linearGradient>
	<path class="st0" d="M47.5,8.9C36.9-1.7,20.3-1,9.7,9.6S-1.6,36.8,9.1,47.4l0.1,0.1l9.3-9.4c-5.4-5.3-5.5-14.1-0.1-19.5
		s14.1-5.5,19.5-0.1l4.9,4.8l9.5-9.6L47.5,8.9z"/>
	
		<radialGradient id="SVGID_2_" cx="54.6198" cy="6.1888" r="78.6477" gradientTransform="matrix(0.9102 0 0 -0.9074 -2.5009 80.2032)" gradientUnits="userSpaceOnUse">
		<stop  offset="0" style="stop-color:#E6E6E6"/>
		<stop  offset="1" style="stop-color:#FFFFFF"/>
	</radialGradient>
	<path class="st1" d="M93.4,21.4L47.7,67L18.6,38c-0.2-0.2-0.3-0.3-0.5-0.5c-7.9-8.1-7.7-21.1,0.5-29S39.8,0.8,47.7,9l0,0
		C37-1.7,19.7-1.7,9,9S-1.7,36.9,9,47.5L47.7,86L103,30.9L93.4,21.4z"/>
</g>
</svg>
