<svg id="Layer_1" data-name="Layer 1" xmlns="http://www.w3.org/2000/svg" width="219.97mm" height="26mm" viewBox="0 0 623.52 73.7"><defs><style>.cls-1{fill:#293433;}</style></defs><title>Myworkout report dark</title><path class="cls-1" d="M.37,29c0-1.29,0-2.57-.11-3.85S.1,22.59,0,21.31H5.26v5.25H5.4A11.48,11.48,0,0,1,10.33,22a14,14,0,0,1,6.25-1.56,16.21,16.21,0,0,1,3,.3,11,11,0,0,1,3.08,1.07A10.51,10.51,0,0,1,25.43,24a12,12,0,0,1,2.19,3.63,11.32,11.32,0,0,1,4.7-5.25A12.8,12.8,0,0,1,39,20.42q6.66,0,9.84,3.52t3.19,10v22H47.16V35.74q0-5.25-1.85-8.07c-1.23-1.87-3.53-2.81-6.88-2.81a9,9,0,0,0-4.6,1.08,8.66,8.66,0,0,0-3,2.84,12.57,12.57,0,0,0-1.67,4,20.64,20.64,0,0,0-.52,4.7V55.94H23.77V35.74q0-5.25-1.86-8.07T15,24.86a14.94,14.94,0,0,0-2,.3A7.72,7.72,0,0,0,9.7,26.79a11.71,11.71,0,0,0-3.07,4,16.36,16.36,0,0,0-1.37,7.4V55.94H.37Z"/><path class="cls-1" d="M76.33,50,86.92,21.31h5.92L75.52,65a18,18,0,0,1-4,6.36q-2.41,2.37-6.93,2.37c-.74,0-1.49,0-2.25-.07a8.8,8.8,0,0,1-2.26-.45l.52-4.73a7.89,7.89,0,0,0,3.7.81,5.22,5.22,0,0,0,4.07-1.63A14.08,14.08,0,0,0,71,63.05l2.52-6.66L59.3,21.31h6.15Z"/><path class="cls-1" d="M100.61,21.31l8,28.12h.15L118,21.31h5l9.25,28.12h.15l8-28.12h5.77l-11,34.63h-5.47l-9.18-28.41h-.15l-9.18,28.41H105.8l-11-34.63Z"/><path class="cls-1" d="M187.61,38.63a19,19,0,0,1-1.37,7.25,17.56,17.56,0,0,1-3.82,5.77,17.16,17.16,0,0,1-5.81,3.81,20.67,20.67,0,0,1-14.8,0,17.13,17.13,0,0,1-9.63-9.58,19.89,19.89,0,0,1,0-14.51,17.13,17.13,0,0,1,9.63-9.58,20.67,20.67,0,0,1,14.8,0,17.3,17.3,0,0,1,5.81,3.81,17.56,17.56,0,0,1,3.82,5.77A19,19,0,0,1,187.61,38.63Zm-5.33,0a15.49,15.49,0,0,0-.93-5.41,13,13,0,0,0-2.63-4.36,12.2,12.2,0,0,0-4.11-2.92,14.24,14.24,0,0,0-10.88,0,11.94,11.94,0,0,0-4.07,2.92,13.21,13.21,0,0,0-2.59,4.36,16.17,16.17,0,0,0,0,10.81,13.11,13.11,0,0,0,2.59,4.36,12,12,0,0,0,4.07,2.93,14.36,14.36,0,0,0,10.88,0,12.23,12.23,0,0,0,4.11-2.93A12.88,12.88,0,0,0,181.35,44,15.47,15.47,0,0,0,182.28,38.63Z"/><path class="cls-1" d="M197,32.11c0-1.52,0-3.08-.11-4.66s-.14-3.62-.19-6.14h4.82v6.44h.14a10.85,10.85,0,0,1,1.48-2.7,11.55,11.55,0,0,1,5.52-4,12.49,12.49,0,0,1,4.11-.63,13.15,13.15,0,0,1,3.63.45l-1,4.81a8.13,8.13,0,0,0-2.81-.37,10.08,10.08,0,0,0-4.81,1.07,10.78,10.78,0,0,0-3.33,2.74,11.3,11.3,0,0,0-2,3.59,11.81,11.81,0,0,0-.62,3.7V55.94H197Z"/><path class="cls-1" d="M226,36.92l16.36-15.61h7.33L232.4,37.15l19.1,18.79H244l-18-18.2v18.2h-4.89V0H226Z"/><path class="cls-1" d="M291.78,38.63a18.76,18.76,0,0,1-1.38,7.25,17.16,17.16,0,0,1-9.62,9.58,19.67,19.67,0,0,1-7.44,1.37A19.45,19.45,0,0,1,266,55.46a17.16,17.16,0,0,1-9.62-9.58A18.76,18.76,0,0,1,255,38.63a18.77,18.77,0,0,1,1.37-7.26A17.16,17.16,0,0,1,266,21.79a19.45,19.45,0,0,1,7.37-1.37,19.67,19.67,0,0,1,7.44,1.37,17.16,17.16,0,0,1,9.62,9.58A18.78,18.78,0,0,1,291.78,38.63Zm-5.34,0a15.49,15.49,0,0,0-.92-5.41,13,13,0,0,0-2.63-4.36,12.4,12.4,0,0,0-4.11-2.92,14.24,14.24,0,0,0-10.88,0,11.85,11.85,0,0,0-4.07,2.92,13.41,13.41,0,0,0-2.6,4.36,16.34,16.34,0,0,0,0,10.81,13.31,13.31,0,0,0,2.6,4.36,11.87,11.87,0,0,0,4.07,2.93,14.36,14.36,0,0,0,10.88,0,12.43,12.43,0,0,0,4.11-2.93A12.88,12.88,0,0,0,285.52,44,15.47,15.47,0,0,0,286.44,38.63Z"/><path class="cls-1" d="M325.68,55.94c-.1-.93-.16-1.86-.18-2.77s0-1.84,0-2.78h-.15A11.23,11.23,0,0,1,323.24,53a13.93,13.93,0,0,1-2.81,2,15.83,15.83,0,0,1-3.3,1.33,12.91,12.91,0,0,1-3.44.48q-6.66,0-9.85-3.52t-3.18-10v-22h4.88V40.48a25.86,25.86,0,0,0,.45,5.1,9.53,9.53,0,0,0,1.52,3.74,6.62,6.62,0,0,0,2.88,2.29,11.59,11.59,0,0,0,4.56.78,18.9,18.9,0,0,0,2.07-.3,9,9,0,0,0,3.59-1.62,11.78,11.78,0,0,0,3.37-4,15.33,15.33,0,0,0,1.48-7.4V21.31h4.89v27c0,.94,0,2.12.11,3.55s.16,2.79.26,4.07Z"/><path class="cls-1" d="M359.74,25.75h-10V46.17a11.32,11.32,0,0,0,.37,3.15,4.6,4.6,0,0,0,1,1.89,3.59,3.59,0,0,0,1.59.92,7.69,7.69,0,0,0,2,.26,9.53,9.53,0,0,0,2.59-.37,12.4,12.4,0,0,0,2.44-1l.23,4.51a15.72,15.72,0,0,1-6.59,1.26,12.19,12.19,0,0,1-2.93-.37,6.76,6.76,0,0,1-2.77-1.41,7.76,7.76,0,0,1-2.08-2.81,11.33,11.33,0,0,1-.81-4.66V25.75h-7.33V21.31h7.33V11.54h4.88v9.77h10Z"/><path class="cls-1" d="M461.57,28.5h-4.42a1.75,1.75,0,0,0-2,2v2.75h8.36V30.5A1.75,1.75,0,0,0,461.57,28.5Z"/><path class="cls-1" d="M492.79,29.5h-1.72a20.4,20.4,0,0,0-5.9,1v12h7.37a1.75,1.75,0,0,0,2-2V31.25A1.74,1.74,0,0,0,494,30,1.64,1.64,0,0,0,492.79,29.5Z"/><path class="cls-1" d="M523.51,29h-5.9a1.75,1.75,0,0,0-2,2V41a1.75,1.75,0,0,0,2,2h5.9a1.75,1.75,0,0,0,2-2V31A1.75,1.75,0,0,0,523.51,29Z"/><path class="cls-1" d="M612.67,3.68H390.6a10.89,10.89,0,0,0-10.85,10.86V59.16A10.88,10.88,0,0,0,390.6,70H612.67a10.88,10.88,0,0,0,10.85-10.86V14.54A10.89,10.89,0,0,0,612.67,3.68ZM444.61,30h-4.18A15.4,15.4,0,0,0,434,31.5V49.27h-8.6V22.74h7.62l.49,3.25a13.22,13.22,0,0,1,8.85-3.75h2.21Zm27.53,9.51h-17v2a1.7,1.7,0,0,0,.49,1.25,1.64,1.64,0,0,0,1.23.5q4.86,0,14.26-.75v6.26a164.64,164.64,0,0,1-17.21,1,7.17,7.17,0,0,1-5.36-2.05,7.47,7.47,0,0,1-2-5.46v-12a8,8,0,0,1,2.09-5.88,7.7,7.7,0,0,1,5.77-2.13h9.83a7.72,7.72,0,0,1,5.78,2.13,8,8,0,0,1,2.09,5.88Zm31,1.75A8,8,0,0,1,501,47.14a7.71,7.71,0,0,1-5.77,2.13H485.17v8.51h-8.61v-35h7.62l.5,2.5A17.78,17.78,0,0,1,489.42,23a14.93,14.93,0,0,1,4.1-.72h2.22a7.17,7.17,0,0,1,5.36,2.05,7.47,7.47,0,0,1,2,5.46Zm31,.5A8,8,0,0,1,532,47.64a7.71,7.71,0,0,1-5.77,2.13H514.91a7.74,7.74,0,0,1-5.78-2.13A8,8,0,0,1,507,41.76V30.25a8,8,0,0,1,2.09-5.88,7.74,7.74,0,0,1,5.78-2.13h11.31A7.71,7.71,0,0,1,532,24.37a8,8,0,0,1,2.09,5.88ZM557.68,30H553.5a15.33,15.33,0,0,0-6.39,1.5V49.27h-8.6V22.74h7.62l.49,3.25a13.21,13.21,0,0,1,8.85-3.75h2.21Zm21.63,19.27a90.45,90.45,0,0,1-9.34.5,7.16,7.16,0,0,1-5.36-2.05,7.48,7.48,0,0,1-2-5.46V29.5h-3V22.74h3l1-6h7.62v6h6.14V29.5H571.2V41a1.7,1.7,0,0,0,.49,1.25,1.64,1.64,0,0,0,1.23.5h6.39Z"/></svg>