<svg id="Layer_1" data-name="Layer 1" xmlns="http://www.w3.org/2000/svg" width="286" height="40" viewBox="0 0 286 40"><defs><style>.cls-1{fill:#293333;}</style></defs><title>Myworkout GO dark</title><path class="cls-1" d="M.2,15.74c0-.69,0-1.39-.06-2.09S.05,12.26,0,11.57H2.85v2.85h.08A6.18,6.18,0,0,1,5.6,11.93,7.66,7.66,0,0,1,9,11.08a9.54,9.54,0,0,1,1.62.16,6.06,6.06,0,0,1,1.67.59A5.64,5.64,0,0,1,13.8,13,6.56,6.56,0,0,1,15,15a6.28,6.28,0,0,1,2.55-2.85,7,7,0,0,1,3.63-1.05q3.61,0,5.35,1.91a7.84,7.84,0,0,1,1.72,5.44V30.36H25.58v-11a8,8,0,0,0-1-4.38c-.67-1-1.92-1.53-3.74-1.53a4.88,4.88,0,0,0-2.49.59,4.6,4.6,0,0,0-1.62,1.54,6.71,6.71,0,0,0-.91,2.19,11.86,11.86,0,0,0-.28,2.55v10H12.89v-11a8,8,0,0,0-1-4.38c-.67-1-1.92-1.53-3.74-1.53a9.49,9.49,0,0,0-1.1.16,4.28,4.28,0,0,0-1.79.89,6.37,6.37,0,0,0-1.67,2.17,9,9,0,0,0-.74,4v9.64H.2Z"/><path class="cls-1" d="M41.41,27.11l5.74-15.54h3.21L41,35.26a9.69,9.69,0,0,1-2.14,3.45A5.15,5.15,0,0,1,35.06,40c-.4,0-.81,0-1.22,0a5.15,5.15,0,0,1-1.23-.24l.28-2.57a4.32,4.32,0,0,0,2,.44,2.83,2.83,0,0,0,2.21-.88,7.8,7.8,0,0,0,1.4-2.49l1.37-3.62-7.71-19H35.5Z"/><path class="cls-1" d="M54.58,11.57l4.34,15.26H59l5-15.26h2.73l5,15.26h.08l4.33-15.26h3.14L73.37,30.36h-3l-5-15.42h-.08l-5,15.42h-3L51.45,11.57Z"/><path class="cls-1" d="M101.77,21A10.2,10.2,0,0,1,101,24.9,9.3,9.3,0,0,1,99,28,9.19,9.19,0,0,1,95.8,30.1a11.26,11.26,0,0,1-8,0A9.19,9.19,0,0,1,84.62,28a9.3,9.3,0,0,1-2.07-3.13A10.2,10.2,0,0,1,81.81,21,10.15,10.15,0,0,1,82.55,17a9.35,9.35,0,0,1,5.22-5.2,11.12,11.12,0,0,1,8,0A9.35,9.35,0,0,1,101,17,10.15,10.15,0,0,1,101.77,21Zm-2.9,0a8.31,8.31,0,0,0-.5-2.93A7.07,7.07,0,0,0,97,15.66a6.6,6.6,0,0,0-2.23-1.58,7.7,7.7,0,0,0-5.91,0,6.29,6.29,0,0,0-2.2,1.58A7,7,0,0,0,85.2,18a8.86,8.86,0,0,0,0,5.87,6.9,6.9,0,0,0,1.41,2.36,6.45,6.45,0,0,0,2.2,1.59,7.82,7.82,0,0,0,5.91,0A6.77,6.77,0,0,0,97,26.26a6.92,6.92,0,0,0,1.42-2.36A8.33,8.33,0,0,0,98.87,21Z"/><path class="cls-1" d="M106.87,17.43c0-.83,0-1.67-.06-2.53s-.08-2-.1-3.33h2.61v3.49h.08a5.57,5.57,0,0,1,.8-1.47,6.54,6.54,0,0,1,1.26-1.26,6,6,0,0,1,1.73-.9,6.73,6.73,0,0,1,2.23-.35,6.84,6.84,0,0,1,2,.25l-.52,2.61a4.34,4.34,0,0,0-1.53-.2,5.41,5.41,0,0,0-2.61.58,5.85,5.85,0,0,0-1.81,1.48,6.3,6.3,0,0,0-1.06,1.95,6.42,6.42,0,0,0-.34,2v10.6h-2.65Z"/><path class="cls-1" d="M122.57,20l8.87-8.47h4l-9.36,8.59,10.36,10.2h-4.09l-9.76-9.88v9.88h-2.65V0h2.65Z"/><path class="cls-1" d="M158.27,21a10.39,10.39,0,0,1-.74,3.94A9.6,9.6,0,0,1,155.46,28a9.19,9.19,0,0,1-3.15,2.07,10.57,10.57,0,0,1-4,.74,10.38,10.38,0,0,1-4-.74A9.32,9.32,0,0,1,141.12,28a9.6,9.6,0,0,1-2.07-3.13,10.83,10.83,0,0,1,0-7.87,9.5,9.5,0,0,1,2.07-3.13,9.32,9.32,0,0,1,3.16-2.07,10.38,10.38,0,0,1,4-.75,10.57,10.57,0,0,1,4,.75,9.19,9.19,0,0,1,3.15,2.07A9.5,9.5,0,0,1,157.53,17,10.34,10.34,0,0,1,158.27,21Zm-2.89,0a8.55,8.55,0,0,0-.5-2.93,7.09,7.09,0,0,0-1.43-2.37,6.51,6.51,0,0,0-2.23-1.58,7.67,7.67,0,0,0-5.9,0,6.33,6.33,0,0,0-2.21,1.58,7.19,7.19,0,0,0-1.4,2.37,8.7,8.7,0,0,0,0,5.87,7,7,0,0,0,1.4,2.36,6.49,6.49,0,0,0,2.21,1.59,7.79,7.79,0,0,0,5.9,0,6.67,6.67,0,0,0,2.23-1.59,6.94,6.94,0,0,0,1.43-2.36A8.56,8.56,0,0,0,155.38,21Z"/><path class="cls-1" d="M176.66,30.36c0-.51-.08-1-.1-1.5s0-1,0-1.51h-.08a6.21,6.21,0,0,1-1.12,1.41,7.74,7.74,0,0,1-1.53,1.1,8.1,8.1,0,0,1-1.78.72,6.8,6.8,0,0,1-1.87.26q-3.61,0-5.34-1.9a7.87,7.87,0,0,1-1.73-5.45V11.57h2.65V22a14.29,14.29,0,0,0,.24,2.77,5.41,5.41,0,0,0,.82,2A3.59,3.59,0,0,0,168.37,28a6.33,6.33,0,0,0,2.47.42,9.64,9.64,0,0,0,1.13-.16,4.8,4.8,0,0,0,1.94-.88,6.38,6.38,0,0,0,1.83-2.17,8.28,8.28,0,0,0,.8-4V11.57h2.65V26.22c0,.51,0,1.16.06,1.93s.09,1.52.15,2.21Z"/><path class="cls-1" d="M195.14,14h-5.42V25.06a5.81,5.81,0,0,0,.2,1.71,2.36,2.36,0,0,0,.56,1,1.92,1.92,0,0,0,.86.5,3.93,3.93,0,0,0,1.11.14,5,5,0,0,0,1.4-.2,6,6,0,0,0,1.33-.52l.12,2.45a8.44,8.44,0,0,1-3.58.68,6.39,6.39,0,0,1-1.58-.2,3.79,3.79,0,0,1-1.51-.76,4.2,4.2,0,0,1-1.12-1.53,6,6,0,0,1-.44-2.53V14h-4V11.57h4V6.26h2.65v5.31h5.42Z"/><path class="cls-1" d="M255.54,15.74h-3.2a1,1,0,0,0-1.07,1.08v5.44a1,1,0,0,0,1.07,1.09h3.2a1,1,0,0,0,1.06-1.09V16.82A.94.94,0,0,0,255.54,15.74Z"/><path class="cls-1" d="M280.11,2H211.89A5.91,5.91,0,0,0,206,7.89V32.11A5.91,5.91,0,0,0,211.89,38h68.22A5.91,5.91,0,0,0,286,32.11V7.89A5.91,5.91,0,0,0,280.11,2ZM244.2,27.56a4,4,0,0,1-1.09,3,3.9,3.9,0,0,1-2.91,1.11,90.1,90.1,0,0,1-9.33-.54V27.56c3.4.27,6,.4,7.73.4a.9.9,0,0,0,.67-.27.93.93,0,0,0,.27-.68V25.65a22,22,0,0,1-4.54.55h-.93a3.87,3.87,0,0,1-2.91-1.12,4,4,0,0,1-1.09-3V16.69a4.37,4.37,0,0,1,1.13-3.19,4.2,4.2,0,0,1,3.14-1.16h9.86Zm17.07-4.89a4.39,4.39,0,0,1-1.13,3.19A4.2,4.2,0,0,1,257,27h-6.13a4.18,4.18,0,0,1-3.13-1.15,4.35,4.35,0,0,1-1.14-3.19V16.42a4.36,4.36,0,0,1,1.14-3.2,4.18,4.18,0,0,1,3.13-1.15H257a4.2,4.2,0,0,1,3.14,1.15,4.4,4.4,0,0,1,1.13,3.2Z"/><path class="cls-1" d="M235.67,22.53h.67a18.34,18.34,0,0,0,3.2-.27V16H235.8a1,1,0,0,0-1.06,1.09v4.48a1,1,0,0,0,.26.68A.9.9,0,0,0,235.67,22.53Z"/></svg>