<?xml version="1.0" encoding="UTF-8"?>
<svg width="40px" height="40px" viewBox="0 0 40 40" version="1.1" xmlns="http://www.w3.org/2000/svg" xmlns:xlink="http://www.w3.org/1999/xlink">
    <!-- Generator: Sketch 48.2 (47327) - http://www.bohemiancoding.com/sketch -->
    <title>Organization icon</title>
    <desc>Created with Sketch.</desc>
    <defs></defs>
    <g id="Symbols" stroke="none" stroke-width="1" fill="none" fill-rule="evenodd">
        <g id="Organization-icon" stroke="#FFFFFF">
            <g transform="translate(0.000000, 3.000000)">
                <path d="M35.6521739,35 L4.34782609,35 C2.43478261,35 0.869565217,33.425 0.869565217,31.5 L0.869565217,10.5 C0.869565217,8.575 2.43478261,7 4.34782609,7 L35.6521739,7 C37.5652174,7 39.1304348,8.575 39.1304348,10.5 L39.1304348,31.5 C39.1304348,33.425 37.5652174,35 35.6521739,35 Z" id="Stroke-1"></path>
                <path d="M39.1321739,17.9375 C33.733913,20.14075 27.1304348,21.4375 20,21.4375 C12.8713043,21.4375 6.26956522,20.1425 0.871304348,17.93925" id="Stroke-3"></path>
                <path d="M26.9565217,7 L26.9565217,3.9375 C26.9565217,2.254 25.3913043,0.875 23.4782609,0.875 L16.5217391,0.875 C14.6086957,0.875 13.0434783,2.254 13.0434783,3.9375 L13.0434783,7" id="Stroke-5"></path>
                <path d="M12,18.375 L12,23.625" id="Stroke-7"></path>
                <path d="M27,18.375 L27,23.625" id="Stroke-9"></path>
            </g>
        </g>
    </g>
</svg>