<?xml version="1.0" encoding="UTF-8"?>
<svg width="40px" height="40px" viewBox="0 0 40 40" version="1.1" xmlns="http://www.w3.org/2000/svg" xmlns:xlink="http://www.w3.org/1999/xlink">
    <!-- Generator: Sketch 48.2 (47327) - http://www.bohemiancoding.com/sketch -->
    <title>Team icon</title>
    <desc>Created with Sketch.</desc>
    <defs></defs>
    <g id="Symbols" stroke="none" stroke-width="1" fill="none" fill-rule="evenodd">
        <g id="Team-icon" stroke="#FFFFFF">
            <g transform="translate(0.000000, 3.000000)">
                <g id="Team-member-3" transform="translate(23.000000, 20.000000)">
                    <path d="M8.38618746,0 C5.96013042,0 3.9934226,1.97725037 3.9934226,4.41631231 C3.9934226,6.85537425 5.96013042,8.83262462 8.38618746,8.83262462 C10.8122445,8.83262462 12.7789523,6.85537425 12.7789523,4.41631231 C12.776646,1.97821145 10.8112885,0.00231868998 8.38618746,0 Z" id="Shape" fill-rule="nonzero"></path>
                    <path d="M0,14.8078542 C2.1519547,12.4827591 5.20535629,11.184951 8.38618746,11.2434157 C11.5670186,11.184951 14.6204202,12.4827591 16.7723749,14.8078542" id="Shape"></path>
                </g>
                <g id="Team-member-2" transform="translate(0.000000, 20.000000)">
                    <path d="M8.38618746,0 C5.96013042,0 3.9934226,1.97725037 3.9934226,4.41631231 C3.9934226,6.85537425 5.96013042,8.83262462 8.38618746,8.83262462 C10.8122445,8.83262462 12.7789523,6.85537425 12.7789523,4.41631231 C12.776646,1.97821145 10.8112885,0.00231868998 8.38618746,0 Z" id="Shape" fill-rule="nonzero"></path>
                    <path d="M0,14.8078542 C2.1519547,12.4827591 5.20535629,11.184951 8.38618746,11.2434157 C11.5670186,11.184951 14.6204202,12.4827591 16.7723749,14.8078542" id="Shape"></path>
                </g>
                <g id="Team-member-1" transform="translate(12.000000, 0.000000)">
                    <path d="M8.38618746,0 C5.96013042,0 3.9934226,1.97725037 3.9934226,4.41631231 C3.9934226,6.85537425 5.96013042,8.83262462 8.38618746,8.83262462 C10.8122445,8.83262462 12.7789523,6.85537425 12.7789523,4.41631231 C12.776646,1.97821145 10.8112885,0.00231868998 8.38618746,0 Z" id="Shape" fill-rule="nonzero"></path>
                    <path d="M0,14.8078542 C2.1519547,12.4827591 5.20535629,11.184951 8.38618746,11.2434157 C11.5670186,11.184951 14.6204202,12.4827591 16.7723749,14.8078542" id="Shape"></path>
                </g>
            </g>
        </g>
    </g>
</svg>