<?xml version="1.0" encoding="UTF-8"?>
<svg width="100px" height="100px" viewBox="0 0 100 100" version="1.1" xmlns="http://www.w3.org/2000/svg" xmlns:xlink="http://www.w3.org/1999/xlink">
    <!-- Generator: Sketch 50.2 (55047) - http://www.bohemiancoding.com/sketch -->
    <title>Logo</title>
    <desc>Created with Sketch.</desc>
    <defs>
        <circle id="path-1" cx="50" cy="50" r="50"></circle>
    </defs>
    <g id="Organization" stroke="none" stroke-width="1" fill="none" fill-rule="evenodd">
        <g id="Contests---add-state" transform="translate(-670.000000, -264.000000)">
            <g id="Register-overlay" transform="translate(450.000000, 217.000000)">
                <g id="Page-icon" transform="translate(220.000000, 47.000000)">
                    <g id="Page-icon/Contest/Placeholder">
                        <g id="Profile-picture-placeholder">
                            <mask id="mask-2" fill="white">
                                <use xlink:href="#path-1"></use>
                            </mask>
                            <use id="Oval" fill="#F3F5F5" xlink:href="#path-1"></use>
                        </g>
                        <g id="Leaderboard-icon" transform="translate(18.571429, 17.142857)">
                            <path d="M48.7030471,45.7494538 C47.6799269,46.3150577 46.4551024,45.4521861 46.643283,44.2983791 L47.6113644,38.3627022 L43.5214585,34.1711922 C42.7253811,33.3553382 43.1854446,31.980937 44.3122575,31.8087462 L49.9077287,30.95369 L52.4227149,25.5954317 C52.9267634,24.5215404 54.454189,24.5215404 54.9582374,25.5954317 L57.4732237,30.95369 L63.0686949,31.8087462 C64.1955078,31.980937 64.6555712,33.3553382 63.8594939,34.1711922 L59.769588,38.3627022 L60.7376694,44.2983791 C60.92585,45.4521861 59.7010255,46.3150577 58.6779053,45.7494538 L53.6904762,42.9922904 L48.7030471,45.7494538 Z" id="Stroke-1" fill="#9FB0B1" fill-rule="nonzero"></path>
                            <path d="M27.7502367,19.5589975 C26.7270838,20.1245802 25.5022715,19.2616374 25.6905217,18.107823 L26.658948,12.1721897 L22.5690775,7.98071601 C21.7730002,7.16486201 22.2330637,5.79046077 23.3598765,5.61827002 L28.9553478,4.76321378 L31.470334,-0.595044489 C31.9743825,-1.66893579 33.501808,-1.66893579 34.0058565,-0.595044489 L36.5208427,4.76321378 L42.1163139,5.61827002 C43.2431268,5.79046077 43.7031903,7.16486201 42.907113,7.98071601 L38.8172425,12.1721897 L39.7856688,18.107823 C39.973919,19.2616374 38.7491067,20.1245802 37.7259538,19.5589975 L32.7380952,16.8017882 L27.7502367,19.5589975 Z" id="Stroke-3" fill="#9FB0B1" fill-rule="nonzero"></path>
                            <path d="M4.1788081,32.6542356 C3.1556552,33.2198183 1.93084288,32.3568754 2.11909309,31.2030611 L3.08751945,25.2674278 L-1.00235105,21.0759541 C-1.79842839,20.2601001 -1.3383649,18.8856989 -0.211552037,18.7135081 L5.3839192,17.8584519 L7.89890542,12.5001936 C8.40295388,11.4263023 9.93037945,11.4263023 10.4344279,12.5001936 L12.9494141,17.8584519 L18.5448854,18.7135081 C19.6716982,18.8856989 20.1317617,20.2601001 19.3356844,21.0759541 L15.2458139,25.2674278 L16.2142402,31.2030611 C16.4024905,32.3568754 15.1776781,33.2198183 14.1545252,32.6542356 L9.16666667,29.8970263 L4.1788081,32.6542356 Z" id="Stroke-4" fill="#9FB0B1" fill-rule="nonzero"></path>
                            <path d="M31.4285714,25.8488613 C31.4285714,25.1256313 32.0148652,24.5393375 32.7380952,24.5393375 C33.4613253,24.5393375 34.047619,25.1256313 34.047619,25.8488613 L34.047619,62.8571429 C34.047619,63.5803729 33.4613253,64.1666667 32.7380952,64.1666667 C32.0148652,64.1666667 31.4285714,63.5803729 31.4285714,62.8571429 L31.4285714,25.8488613 Z" id="Line-6" fill="#C5CFD0" fill-rule="nonzero"></path>
                            <path d="M52.3809524,54.3167702 C52.3809524,53.5935402 52.9672462,53.0072464 53.6904762,53.0072464 C54.4137062,53.0072464 55,53.5935402 55,54.3167702 L55,62.8571429 C55,63.5803729 54.4137062,64.1666667 53.6904762,64.1666667 C52.9672462,64.1666667 52.3809524,63.5803729 52.3809524,62.8571429 L52.3809524,54.3167702 Z" id="Line-7" fill="#C5CFD0" fill-rule="nonzero"></path>
                            <path d="M7.85714286,40.0828157 C7.85714286,39.3595857 8.44343664,38.7732919 9.16666667,38.7732919 C9.8898967,38.7732919 10.4761905,39.3595857 10.4761905,40.0828157 L10.4761905,62.8571429 C10.4761905,63.5803729 9.8898967,64.1666667 9.16666667,64.1666667 C8.44343664,64.1666667 7.85714286,63.5803729 7.85714286,62.8571429 L7.85714286,40.0828157 Z" id="Line-8" fill="#C5CFD0" fill-rule="nonzero"></path>
                        </g>
                    </g>
                </g>
            </g>
        </g>
    </g>
</svg>