<svg width="28" height="28" viewBox="0 0 28 28" fill="none" xmlns="http://www.w3.org/2000/svg">
    <path d="M14.5 11.8696V26M22.5 22.7391V26M5.5 17.3043V26M22.5 17.8042L20.337 19L20.7501 16.4673L19 14.6737L21.4185 14.3042L22.5 12L23.5815 14.3042L26 14.6737L24.2499 16.4673L24.663 19L22.5 17.8042ZM14.5 7.80425L12.3369 9L12.7501 6.4673L11 4.67374L13.4185 4.30417L14.5 2L15.5815 4.30417L18 4.67374L16.2499 6.4673L16.6631 9L14.5 7.80425ZM5.5 12.8042L3.33685 14L3.75008 11.4673L2 9.67374L4.4185 9.30417L5.5 7L6.5815 9.30417L9 9.67374L7.24993 11.4673L7.66315 14L5.5 12.8042Z" stroke="#0CA1AC"/>
</svg>
