<?xml version="1.0" encoding="UTF-8"?>
<svg width="25px" height="25px" viewBox="0 0 25 25" version="1.1" xmlns="http://www.w3.org/2000/svg" xmlns:xlink="http://www.w3.org/1999/xlink">
    <!-- Generator: Sketch 49.1 (51147) - http://www.bohemiancoding.com/sketch -->
    <title>Secondary menu/Icons/Logout</title>
    <desc>Created with Sketch.</desc>
    <defs></defs>
    <g id="Secondary-menu/Icons/Log-out-Copy" stroke="none" stroke-width="1" fill="none" fill-rule="evenodd" stroke-linecap="round">
        <g id="Log-out-icon" transform="translate(0.000000, 1.000000)" stroke="#0EBBC9">
            <path d="M9,8 L9,3 C9,1.34314575 10.1640597,3.04359188e-16 11.6,0 L19.4,0 C20.8359403,-3.04359188e-16 22,1.34314575 22,3 L22,20 C22,21.6568542 20.8359403,23 19.4,23 L11.6,23 C10.1640597,23 9,21.6568542 9,20 C9,18.361084 9,16.638916 9,15" id="Rectangle-2"></path>
            <g id="Group" transform="translate(0.000000, 7.000000)">
                <polyline id="Rectangle-3" stroke-linejoin="round" transform="translate(5.000000, 4.502641) rotate(-225.000000) translate(-5.000000, -4.502641) " points="8 1.50264092 8 7.50264092 2 7.50264092"></polyline>
                <path d="M1.5,4.5 C1.5,4.5 13.5,4.5 13.5,4.5" id="Line"></path>
            </g>
        </g>
    </g>
</svg>