<?xml version="1.0" encoding="UTF-8"?>
<svg width="23px" height="23px" viewBox="0 0 23 23" version="1.1" xmlns="http://www.w3.org/2000/svg" xmlns:xlink="http://www.w3.org/1999/xlink">
    <!-- Generator: Sketch 48.2 (47327) - http://www.bohemiancoding.com/sketch -->
    <title>Organization icon</title>
    <desc>Created with Sketch.</desc>
    <defs></defs>
    <g id="Symbols" stroke="none" stroke-width="1" fill="none" fill-rule="evenodd">
        <g id="Organization-icon" stroke="#0EBBC9">
            <g transform="translate(0.000000, 1.000000)">
                <path d="M20.5,20 L2.5,20 C1.4,20 0.5,19.1 0.5,18 L0.5,6 C0.5,4.9 1.4,4 2.5,4 L20.5,4 C21.6,4 22.5,4.9 22.5,6 L22.5,18 C22.5,19.1 21.6,20 20.5,20 Z" id="Stroke-1"></path>
                <path d="M22.501,10.25 C19.397,11.509 15.6,12.25 11.5,12.25 C7.401,12.25 3.605,11.51 0.501,10.251" id="Stroke-3"></path>
                <path d="M15.5,4 L15.5,2.25 C15.5,1.288 14.6,0.5 13.5,0.5 L9.5,0.5 C8.4,0.5 7.5,1.288 7.5,2.25 L7.5,4" id="Stroke-5"></path>
                <path d="M6.9,10.5 L6.9,13.5" id="Stroke-7"></path>
                <path d="M15.525,10.5 L15.525,13.5" id="Stroke-9"></path>
            </g>
        </g>
    </g>
</svg>