<?xml version="1.0" encoding="UTF-8"?>
<svg width="25px" height="25px" viewBox="0 0 25 25" version="1.1" xmlns="http://www.w3.org/2000/svg" xmlns:xlink="http://www.w3.org/1999/xlink">
    <!-- Generator: Sketch 48.2 (47327) - http://www.bohemiancoding.com/sketch -->
    <title>Secondary menu/Icons/Settings</title>
    <desc>Created with Sketch.</desc>
    <defs></defs>
    <g id="Symbols" stroke="none" stroke-width="1" fill="none" fill-rule="evenodd">
        <g id="Secondary-menu/Icons/Settings" fill-rule="nonzero" stroke="#0EBBC9">
            <g id="Settings-icon" transform="translate(1.000000, 1.500000)">
                <path d="M14.3683398,11 C14.3683398,12.5882699 13.0960679,13.875817 11.5266409,13.875817 C9.95721399,13.875817 8.68494208,12.5882699 8.68494208,11 C8.68494208,9.41173013 9.95721399,8.12418301 11.5266409,8.12418301 C13.0960679,8.12418301 14.3683398,9.41173013 14.3683398,11 Z" id="Shape"></path>
                <path d="M18.8084942,2.12810458 L17.565251,5.15490196 L17.2739768,5.87385621 L17.7215444,6.51372549 C17.9420872,6.82922066 18.1391797,7.16085112 18.3111969,7.50588235 L18.6450965,8.18169935 L19.3555212,8.28235294 L22.6305792,8.73529412 C22.8980093,10.0854825 22.9268726,11.4729509 22.7158301,12.8333333 L19.5899614,13.2647059 L18.7942857,13.372549 L18.4745946,14.0915033 C18.2776627,14.5372525 18.0398107,14.9633052 17.7641699,15.3640523 L17.3379151,15.996732 L17.6220849,16.7156863 L18.8582239,19.7928105 C17.8532457,20.6713234 16.7039206,21.364818 15.4623938,21.8418301 L13.5868726,19.3326797 L13.1037838,18.6928105 L12.3152124,18.7718954 C11.7932559,18.826481 11.2671302,18.826481 10.7451737,18.7718954 L9.95660232,18.6928105 L9.47351351,19.3326797 L7.52694981,21.8921569 C6.285423,21.4151448 5.13609794,20.7216502 4.13111969,19.8431373 L5.36725869,16.751634 L5.65142857,16.0326797 L5.22517375,15.4 C4.94953295,14.9992529 4.71168092,14.5732002 4.51474903,14.127451 L4.19505792,13.4084967 L3.39938224,13.3006536 L0.273513514,12.869281 C0.0624710574,11.5088986 0.0913343786,10.1214302 0.358764479,8.77124183 L3.63382239,8.31830065 L4.3442471,8.21764706 L4.67814672,7.54183007 C4.85016392,7.19679883 5.04725647,6.86516837 5.26779923,6.5496732 L5.7153668,5.90980392 L5.42409266,5.19084967 L4.26610039,2.12091503 C5.31858216,1.2288011 6.52205508,0.537021343 7.81822394,0.0790849673 L9.82872587,2.7248366 L10.2905019,3.33594771 L11.0506564,3.28562092 L11.1785328,3.28562092 L11.5479537,3.28562092 L11.9173745,3.28562092 L12.045251,3.28562092 L12.8054054,3.33594771 L13.2671815,2.7248366 L15.2776834,0.0790849673 C16.9299028,0.850355421 18.1068397,1.53336196 18.8084942,2.12810458 Z" id="Shape"></path>
            </g>
        </g>
    </g>
</svg>