<svg width="23px" height="21px" viewBox="0 0 23 21" version="1.1" xmlns="http://www.w3.org/2000/svg" xmlns:xlink="http://www.w3.org/1999/xlink">
    <!-- Generator: Sketch 48.2 (47327) - http://www.bohemiancoding.com/sketch -->
    <desc>Created with Sketch.</desc>
    <defs></defs>
    <g id="Symbols" stroke="none" stroke-width="1" fill="none" fill-rule="evenodd">
        <g id="Secondary-menu/Icons/Team" transform="translate(-1.000000, -2.000000)" stroke="#0EBBC9">
            <g id="Team-icon" transform="translate(1.000000, 2.500000)">
                <g id="Team-member-3" transform="translate(13.225000, 11.428571)">
                    <path d="M4.82205779,0 C3.42707499,0 2.29621799,1.12985735 2.29621799,2.52360703 C2.29621799,3.91735671 3.42707499,5.04721407 4.82205779,5.04721407 C6.21704059,5.04721407 7.34789758,3.91735671 7.34789758,2.52360703 C7.34657144,1.13040654 6.21649091,0.0013249657 4.82205779,0 Z" id="Shape" fill-rule="nonzero"></path>
                    <path d="M0,8.46163099 C1.23737395,7.13300523 2.99307987,6.39140058 4.82205779,6.42480898 C6.65103571,6.39140058 8.40674162,7.13300523 9.64411557,8.46163099" id="Shape"></path>
                </g>
                <g id="Team-member-2" transform="translate(0.000000, 11.428571)">
                    <path d="M4.82205779,0 C3.42707499,0 2.29621799,1.12985735 2.29621799,2.52360703 C2.29621799,3.91735671 3.42707499,5.04721407 4.82205779,5.04721407 C6.21704059,5.04721407 7.34789758,3.91735671 7.34789758,2.52360703 C7.34657144,1.13040654 6.21649091,0.0013249657 4.82205779,0 Z" id="Shape" fill-rule="nonzero"></path>
                    <path d="M0,8.46163099 C1.23737395,7.13300523 2.99307987,6.39140058 4.82205779,6.42480898 C6.65103571,6.39140058 8.40674162,7.13300523 9.64411557,8.46163099" id="Shape"></path>
                </g>
                <g id="Team-member-1" transform="translate(6.900000, 0.000000)">
                    <path d="M4.82205779,0 C3.42707499,0 2.29621799,1.12985735 2.29621799,2.52360703 C2.29621799,3.91735671 3.42707499,5.04721407 4.82205779,5.04721407 C6.21704059,5.04721407 7.34789758,3.91735671 7.34789758,2.52360703 C7.34657144,1.13040654 6.21649091,0.0013249657 4.82205779,0 Z" id="Shape" fill-rule="nonzero"></path>
                    <path d="M0,8.46163099 C1.23737395,7.13300523 2.99307987,6.39140058 4.82205779,6.42480898 C6.65103571,6.39140058 8.40674162,7.13300523 9.64411557,8.46163099" id="Shape"></path>
                </g>
            </g>
        </g>
    </g>
</svg>