<svg width="28" height="28" viewBox="0 0 28 28" fill="none" xmlns="http://www.w3.org/2000/svg">
    <path d="M15.879 24.3738C17.1775 22.9795 19.0201 22.2012 20.9395 22.2362C22.8589 22.2012 24.7014 22.9795 26 24.3738M2 24.3738C3.29856 22.9795 5.14109 22.2012 7.06051 22.2362C8.97993 22.2012 10.8225 22.9795 12.121 24.3738M9.24121 12.3801C10.5398 10.9857 12.3823 10.2075 14.3017 10.2425C16.2211 10.2075 18.0637 10.9857 19.3622 12.3801M20.9395 15.4937C19.4755 15.4937 18.2887 16.6794 18.2887 18.1421C18.2887 19.6048 19.4755 20.7905 20.9395 20.7905C22.4035 20.7905 23.5902 19.6048 23.5902 18.1421C23.5888 16.68 22.4029 15.4951 20.9395 15.4937ZM7.06051 15.4937C5.59654 15.4937 4.40977 16.6794 4.40977 18.1421C4.40977 19.6048 5.59654 20.7905 7.06051 20.7905C8.52447 20.7905 9.71125 19.6048 9.71125 18.1421C9.70986 16.68 8.5239 15.4951 7.06051 15.4937ZM14.3017 3.5C12.8378 3.5 11.651 4.68573 11.651 6.1484C11.651 7.61107 12.8378 8.7968 14.3017 8.7968C15.7657 8.7968 16.9525 7.61107 16.9525 6.1484C16.9511 4.68631 15.7651 3.50139 14.3017 3.5Z" stroke="#0CA1AC"/>
</svg>
